<?xml version="1.0" standalone="no"?><!DOCTYPE svg PUBLIC "-//W3C//DTD SVG 1.1//EN" "http://www.w3.org/Graphics/SVG/1.1/DTD/svg11.dtd"><svg class="icon" height="512" viewBox="0 0 1024 1024" version="1.1" xmlns="http://www.w3.org/2000/svg"><path d="M782.549333 296.106667a37.248 37.248 0 0 0-52.48-0.256 36.736 36.736 0 0 0-0.256 52.181333l82.986667 83.328-279.509333 1.066667a36.992 36.992 0 0 0-37.034667 36.992c0.042667 20.352 16.64 36.821333 37.12 36.821333l279.04-1.066667-82.602667 82.944a36.736 36.736 0 0 0 0.256 52.181334 37.077333 37.077333 0 0 0 52.48-0.213334l145.365334-146.048a36.736 36.736 0 0 0 0-51.925333L782.549333 296.106667zM426.794667 810.666667h179.626666c20.522667 0 35.413333-16.512 35.413334-36.906667V605.013333a36.992 36.992 0 0 0-37.12-36.906666 36.992 36.992 0 0 0-37.077334 36.906666v131.84h-140.8V252.074667a42.666667 42.666667 0 0 0-31.658666-41.216l-33.92-9.045334h206.378666v131.84c0 20.394667 16.64 36.906667 37.12 36.906667s37.12-16.512 37.12-36.906667V164.906667c0-20.394667-14.933333-36.906667-35.413333-36.906667H122.453333c-20.48 0-37.12 16.512-37.12 36.906667v609.322666a42.666667 42.666667 0 0 0 31.658667 41.216l256.128 68.522667a42.666667 42.666667 0 0 0 53.674667-41.216V810.666667z" /></svg>